<?xml version="1.0" encoding="utf-8"?>
<!-- Generator: Adobe Illustrator 22.1.0, SVG Export Plug-In . SVG Version: 6.00 Build 0)  -->
<svg version="1.1" id="Layer_1" xmlns="http://www.w3.org/2000/svg" xmlns:xlink="http://www.w3.org/1999/xlink" x="0px" y="0px"
	 viewBox="0 0 2048 2048" style="enable-background:new 0 0 2048 2048;" xml:space="preserve">
<style type="text/css">
	.st0{fill:#F2F2F2;}
	.st1{fill:#AFDA01;}
	.st2{fill:#88AA01;}
	.st3{fill:#859A30;}
	.st4{fill:url(#SVGID_1_);}
	.st5{fill:#42210B;}
	.st6{fill:#8C6239;}
	.st7{fill:none;}
	.st8{fill:#FFB726;}
	.st9{fill:#000D20;}
	.st10{fill:none;stroke:#000D20;stroke-linecap:round;stroke-linejoin:round;stroke-miterlimit:10;}
</style>
<g id="Background">
	<rect class="st0" width="2048" height="2048"/>
	<path class="st1" d="M1230.8,947.9c14.3-6.9,28.9-13,44.3-17.1c28.8-7.6,58-9.7,87.6-5.3c16.8,2.5,33.3,6.6,49.2,12.4
		c15.3,5.6,30.1,12.5,44.3,20.5c16.3,9.1,31.7,19.5,46.2,31.3c7.4,6,14.6,12.3,21.9,18.3c1.3,0.9,2.3,2,3.3,3.2
		c-4.6-0.7-9.2-1.5-13.9-2.1c-21.2-2.6-42.5-5.5-63.7-7.7c-31.5-3.3-63.1-4.5-94.7-3.7c-25.5,0.7-50.8,2.7-75.9,7.3
		c-21.5,4-42.5,9.5-62.3,19.1c-3.1,1.5-6.1,2.9-9.1,4.3c1.5-3.5,3.2-6.8,4.5-10.3c2.9-7.8,5.9-15.6,8.2-23.6
		c2.7-9.5,4.9-19.2,7-28.9C1228.9,959.7,1229.7,953.7,1230.8,947.9z"/>
	<path class="st2" d="M1005.9,1369.1c-10,1-19.1,4.9-27.9,9.3c-1,0.5-2.1,1.1-3.1,1.6c-0.2-19.2,2.5-38,6.7-56.7
		c1.1-4.9,2-10,3.7-14.8c7.4-21.1,14.4-42.4,22.8-63.1c6-14.9,13.6-29.3,21.1-43.5c7.4-14,15.4-27.7,23.5-41.3
		c6.5-10.9,13.4-21.5,20.5-32c8-11.9,16.4-23.6,24.7-35.3c0.8-1.1,2.1-2.1,3.1-3.1c-0.9,3.7-1.6,7.5-2.7,11.1
		c-6.9,24-13.8,48-20.8,71.9c-1.2,4.1-3.1,8-4.5,12.1c-0.3,0.7,0,1.5,0.1,2.3c-4.8,7.3-9.7,14.6-14.5,22
		c-11.9,18.5-16.4,39.2-17.2,60.8c-0.7,19.7,1.4,39.1,5.3,58.4c1.9,9.3,3.9,18.6,6.3,27.9c1.7,6.8,4,13.5,6.1,20.2
		c-7.1-2.5-14-5.5-21.2-7.2C1027.2,1367.3,1016.3,1367,1005.9,1369.1z"/>
	<path class="st3" d="M1100.8,1090.5L1100.8,1090.5L1100.8,1090.5L1100.8,1090.5z"/>
	
		<linearGradient id="SVGID_1_" gradientUnits="userSpaceOnUse" x1="1067.6" y1="1097.2728" x2="1232.7008" y2="1097.2728" gradientTransform="matrix(1 0 0 -1 0 2048)">
		<stop  offset="0" style="stop-color:#AAD400"/>
		<stop  offset="1" style="stop-color:#CCFF00"/>
	</linearGradient>
	<path class="st4" d="M1231.1,886.6c-3.1-27.9-9-55.1-21.1-80.6c-3.1-6.4-5.5-13.1-8.9-19.3c-4.3-7.8-9.4-15.2-14.1-22.8
		c-6.1-8.6-13-16.4-21.8-22.3c-7.6-5.1-15.1-10.4-23.1-14.6c-21.5-11.4-44.7-14.6-68.7-13.1c-1.7,0.1-3.4,0.4-5.8,0.7
		c3.7,3.1,6.9,5.6,9.9,8.4c9.3,8.7,16.6,19.3,23.2,30c11,17.9,16.8,37.9,21.7,57.9c5.9,23.9,7.5,48.4,7.6,72.9
		c0.1,38.1-2.4,75.9-9.7,113.4c-3.7,18.9-6.8,37.9-10.5,56.9c-2.3,11.8-5.4,23.5-8.1,35.3c-0.3,0.4-0.5,0.7-0.7,1.1
		c-0.9,3.7-1.6,7.5-2.7,11.1c-6.9,24-13.8,48-20.8,71.9c-1.2,4.1-3.1,8-4.5,12.1c-0.3,0.7,0,1.5,0,2.3c1.5-1.1,3.1-2.1,4.5-3.3
		c8.5-7,17-13.9,25.3-21.1c6.8-5.9,13.5-11.9,19.9-18.2c8.1-7.9,15.9-16,23.5-24.4c7.4-8.2,14.6-16.6,21.2-25.5
		c7.1-9.5,13.3-19.6,19.8-29.5c-0.2-0.7-0.5-1.5-0.7-2.2c0.2,0.7,0.5,1.5,0.7,2.2c3.5-5.7,7.3-11.3,10.5-17.2
		c3.7-6.7,6.9-13.5,10.3-20.3c1.5-3.5,3.2-6.8,4.5-10.3c2.9-7.8,5.9-15.6,8.2-23.6c2.7-9.5,4.9-19.2,7-28.9
		c1.3-5.9,2.1-11.8,3.2-17.7c0.1-0.9,0-1.9,0.1-2.9C1233.2,925.6,1233.3,906.1,1231.1,886.6z"/>
	<rect y="1365.3" class="st5" width="2048" height="682.7"/>
	<path class="st6" d="M920.1,1541.3h26l26-26l-26-26l26-26l-26-26h32.5l26,26l-26,26l26,26l-26,26h16.3l26-26l-26-26l26-26l-26-26
		h32.5l26,26l-26,26l26,26l-26,26h16.3l26-26l-26-26l26-26l-26-26h32.5l26,26l-26,26l26,26l-26,26h52l-26,26H946.1L920.1,1541.3z
		 M959.1,1580.3H1089v26H959.1V1580.3z M998,1619.3h51.9l-26,26L998,1619.3z"/>
</g>
<g id="Foreground">
	<rect class="st7" width="2048" height="2048"/>
	<g>
		<path class="st8" d="M902.5,887.4c0,0-4.3-113.3-28.6-181.3c-24.2-68-54.2-179.6-88.4-101.6C751.3,682.3,902.5,887.4,902.5,887.4z
			"/>
		<path class="st8" d="M902.5,887.4c0,0-40.1-165.1-56.5-190.4c-16.4-25.3-50.8-160.9-102.3-73.9c-51.5,87-59.6,167-55.5,176.3
			c4.2,9.3,31.2,25.6,60.3,39C772,849.3,913.2,930,902.5,887.4z"/>
		<path class="st8" d="M898.6,898.5c0,0-203.7-140.1-221.8-76.7s2.1,209.3,32.4,206.8C739.6,1026.2,865.1,938.8,898.6,898.5z"/>
		<g>
			<path class="st9" d="M906.7,910.1c-17.9,30.2-36.6,52.4-41.9,49.7c-5.3-2.7,5-29.4,22.8-59.5c17.9-30.2,36.6-52.4,41.9-49.7
				C934.8,853.3,924.6,879.9,906.7,910.1z"/>
			<path class="st9" d="M939.1,855.5c-2.9,4.9-9.5,6.7-14.8,4c-5.3-2.7-7.2-8.9-4.3-13.8c2.9-4.9,9.5-6.7,14.8-4
				C940.1,844.4,942,850.6,939.1,855.5z"/>
			<g>
				<path class="st10" d="M997.3,815.1c0,0-26.4-10.9-62,32.4"/>
				<path class="st9" d="M992.9,812.8c-1.4,2.3-0.5,5.2,2,6.5c2.5,1.3,5.6,0.4,6.9-1.9c1.4-2.3,0.5-5.2-2-6.5
					C997.3,809.7,994.2,810.5,992.9,812.8z"/>
			</g>
			<g>
				<path class="st10" d="M975.8,802c0,0-28.7-2.4-47.5,49.4"/>
				<path class="st9" d="M970.8,801.2c-0.5,2.6,1.4,5.1,4.1,5.5c2.8,0.5,5.4-1.3,5.9-3.9c0.5-2.6-1.4-5.1-4.1-5.5
					C974,796.9,971.3,798.6,970.8,801.2z"/>
			</g>
		</g>
	</g>
</g>
</svg>
