<?xml version="1.0" encoding="utf-8"?>
<!-- Generator: Adobe Illustrator 22.1.0, SVG Export Plug-In . SVG Version: 6.00 Build 0)  -->
<svg version="1.1" id="Layer_1" xmlns="http://www.w3.org/2000/svg" xmlns:xlink="http://www.w3.org/1999/xlink" x="0px" y="0px"
	 viewBox="0 0 2048 2048" style="enable-background:new 0 0 2048 2048;" xml:space="preserve">
<style type="text/css">
	.st0{fill:#F2F2F2;}
	.st1{fill:#AFDA01;}
	.st2{fill:#88AA01;}
	.st3{fill:#859A30;}
	.st4{fill:url(#SVGID_1_);}
	.st5{fill:#42210B;}
	.st6{fill:#8C6239;}
	.st7{fill:#FFB726;}
	.st8{fill:#000D20;}
	.st9{fill:none;stroke:#000D20;stroke-linecap:round;stroke-linejoin:round;stroke-miterlimit:10;}
</style>
<title>app_logo_unrounded</title>
<g>
	<rect class="st0" width="2048" height="2048"/>
	<path class="st1" d="M1334.2,909.8c21.5-10.3,43.4-19.5,66.5-25.6c43.2-11.4,87-14.5,131.4-8c25.2,3.7,49.9,9.9,73.8,18.6
		c22.9,8.4,45.1,18.7,66.4,30.8c24.4,13.6,47.6,29.3,69.3,46.9c11.1,9,21.9,18.4,32.8,27.5c1.9,1.3,3.5,3,4.9,4.8
		c-6.9-1.1-13.8-2.3-20.8-3.2c-31.8-3.9-63.7-8.2-95.6-11.6c-47.2-4.9-94.6-6.7-142-5.5c-38.2,1-76.2,4-113.8,11
		c-32.3,6-63.8,14.3-93.5,28.6c-4.6,2.2-9.2,4.3-13.7,6.5c2.3-5.2,4.8-10.2,6.7-15.5c4.3-11.7,8.9-23.4,12.3-35.4
		c4.1-14.3,7.3-28.8,10.5-43.3C1331.3,927.6,1332.6,918.6,1334.2,909.8z"/>
	<path class="st2" d="M996.9,1541.7c-15,1.5-28.6,7.3-41.9,14c-1.5,0.8-3.1,1.6-4.6,2.4c-0.3-28.8,3.8-57,10-85
		c1.6-7.4,3-15,5.5-22.2c11.1-31.7,21.6-63.6,34.2-94.7c9-22.4,20.4-43.9,31.7-65.3c11.1-21,23.1-41.5,35.3-61.9
		c9.7-16.3,20.1-32.2,30.7-48c12-17.9,24.6-35.4,37.1-52.9c1.2-1.7,3.1-3.1,4.6-4.6c-1.3,5.6-2.4,11.2-4,16.7
		c-10.3,36-20.7,72-31.2,107.9c-1.8,6.2-4.6,12-6.8,18.1c-0.4,1,0,2.3,0.1,3.4c-7.2,11-14.6,21.9-21.7,33
		c-17.8,27.8-24.6,58.8-25.8,91.2c-1.1,29.5,2.1,58.7,7.9,87.6c2.8,14,5.9,27.9,9.4,41.8c2.6,10.2,6,20.2,9.1,30.3
		c-10.6-3.7-21-8.2-31.8-10.8C1028.8,1538.9,1012.5,1538.5,996.9,1541.7z"/>
	<path class="st3" d="M1139.2,1123.8L1139.2,1123.8L1139.2,1123.8L1139.2,1123.8z"/>
	<linearGradient id="SVGID_1_" gradientUnits="userSpaceOnUse" x1="1089.3002" y1="914.0001" x2="1337.005" y2="914.0001">
		<stop  offset="0" style="stop-color:#AAD400"/>
		<stop  offset="1" style="stop-color:#CCFF00"/>
	</linearGradient>
	<path class="st4" d="M1334.7,817.9c-4.7-41.8-13.5-82.6-31.7-120.9c-4.6-9.6-8.3-19.7-13.4-28.9c-6.5-11.7-14.1-22.8-21.1-34.2
		c-9.1-12.9-19.5-24.6-32.7-33.5c-11.4-7.6-22.6-15.6-34.7-21.9c-32.2-17.1-67-21.9-103.1-19.7c-2.6,0.2-5.1,0.6-8.7,1
		c5.5,4.7,10.4,8.4,14.9,12.6c14,13.1,24.9,28.9,34.8,45c16.5,26.8,25.2,56.8,32.5,86.9c8.8,35.8,11.2,72.6,11.4,109.3
		c0.2,57.1-3.6,113.9-14.6,170.1c-5.5,28.4-10.2,56.9-15.8,85.3c-3.5,17.7-8.1,35.3-12.2,52.9c-0.4,0.6-0.7,1.1-1.1,1.7
		c-1.3,5.6-2.4,11.2-4,16.7c-10.3,36-20.7,72-31.2,107.9c-1.8,6.2-4.6,12-6.8,18.1c-0.4,1,0,2.3,0,3.4c2.3-1.7,4.6-3.2,6.8-5
		c12.7-10.5,25.5-20.9,38-31.6c10.2-8.8,20.2-17.9,29.8-27.3c12.1-11.9,23.9-24,35.3-36.6c11.1-12.3,21.9-24.9,31.8-38.2
		c10.6-14.2,19.9-29.4,29.7-44.2c-0.3-1.1-0.7-2.2-1-3.3c0.3,1.1,0.7,2.2,1,3.3c5.3-8.6,10.9-17,15.7-25.8
		c5.5-10,10.3-20.3,15.4-30.5c2.3-5.2,4.8-10.2,6.7-15.5c4.3-11.7,8.9-23.4,12.3-35.4c4.1-14.3,7.3-28.8,10.5-43.3
		c2-8.8,3.2-17.7,4.8-26.5c0.1-1.4,0-2.9,0.2-4.3C1337.8,876.4,1337.9,847.1,1334.7,817.9z"/>
	<rect y="1536" class="st5" width="2048" height="512"/>
	<path class="st6" d="M868.1,1800h39l39-39l-39-39l39-39l-39-39h48.7l39,39l-39,39l39,39l-39,39h24.4l39-39l-39-39l39-39l-39-39
		h48.7l39,39l-39,39l39,39l-39,39h24.4l39-39l-39-39l39-39l-39-39h48.7l39,39l-39,39l39,39l-39,39h78l-39,39H907.1L868.1,1800z
		 M926.6,1858.5h194.9v39H926.6V1858.5z M985,1916.9h77.9l-39,39L985,1916.9z"/>
	<g>
		<path class="st7" d="M841.7,815.7c0,0-6.5-170-42.8-272c-36.3-102-81.2-269.3-132.6-152.4C615,508.1,841.7,815.7,841.7,815.7z"/>
		<path class="st7" d="M841.7,815.7c0,0-60.2-247.6-84.8-285.6c-24.6-37.9-76.2-241.4-153.5-110.8S514,669.8,520.3,683.7
			c6.2,13.9,46.8,38.3,90.4,58.5C646,758.6,857.8,879.6,841.7,815.7z"/>
		<path class="st7" d="M836,832.3c0,0-305.6-210.2-332.8-115c-27.1,95.1,3.1,313.9,48.7,310.2C597.4,1023.8,785.8,892.8,836,832.3z"
			/>
		<g>
			<path class="st8" d="M848.2,849.7c-26.8,45.3-54.9,78.6-62.8,74.6c-7.9-4.1,7.4-44.1,34.3-89.3c26.8-45.3,55-78.6,62.9-74.6
				C890.3,764.5,875,804.5,848.2,849.7z"/>
			<path class="st8" d="M896.7,767.8c-4.4,7.4-14.3,10-22.2,6c-7.9-4.1-10.7-13.4-6.4-20.7c4.4-7.4,14.3-10,22.2-6
				C898.2,751.2,901.1,760.4,896.7,767.8z"/>
			<g>
				<path class="st9" d="M984,707.3c0,0-39.5-16.3-93,48.6"/>
				<path class="st8" d="M977.3,703.9c-2,3.5-0.7,7.8,3,9.7c3.7,1.9,8.3,0.7,10.4-2.8c2-3.4,0.7-7.8-3-9.7
					C984.1,699.2,979.4,700.4,977.3,703.9z"/>
			</g>
			<g>
				<path class="st9" d="M951.8,687.7c0,0-43.1-3.6-71.3,74"/>
				<path class="st8" d="M944.3,686.4c-0.7,3.9,2,7.6,6.2,8.3c4.2,0.7,8.1-1.9,8.9-5.8c0.7-3.9-2-7.6-6.2-8.3
					C949,679.9,945.1,682.5,944.3,686.4z"/>
			</g>
		</g>
	</g>
</g>
</svg>
