<?xml version="1.0" encoding="utf-8"?>
<!-- Generator: Adobe Illustrator 22.1.0, SVG Export Plug-In . SVG Version: 6.00 Build 0)  -->
<svg version="1.1" id="Layer_1" xmlns="http://www.w3.org/2000/svg" xmlns:xlink="http://www.w3.org/1999/xlink" x="0px" y="0px"
	 viewBox="0 0 2048 2048" style="enable-background:new 0 0 2048 2048;" xml:space="preserve">
<style type="text/css">
	.st0{fill:url(#SVGID_1_);}
	.st1{fill:#AFDA01;}
	.st2{fill:#859A30;}
	.st3{fill:url(#SVGID_2_);}
	.st4{fill:#8C6239;}
	.st5{fill:#88AA01;}
	.st6{fill:#FFB726;}
	.st7{fill:#000D20;}
	.st8{fill:none;stroke:#000D20;stroke-linecap:round;stroke-linejoin:round;stroke-miterlimit:10;}
</style>
<g>
	<g>
		<g>
			
				<linearGradient id="SVGID_1_" gradientUnits="userSpaceOnUse" x1="1030" y1="2053" x2="1030" y2="5" gradientTransform="matrix(1 0 0 -1 0 2048)">
				<stop  offset="0" style="stop-color:#F2F2F2"/>
				<stop  offset="0.75" style="stop-color:#F2F2F2"/>
				<stop  offset="0.75" style="stop-color:#42210B"/>
			</linearGradient>
			<path class="st0" d="M1030-5L1030-5c565.6,0,1024,458.4,1024,1024l0,0c0,565.6-458.4,1024-1024,1024l0,0
				C464.4,2043,6,1584.6,6,1019l0,0C6,455.8,466.8-5,1030-5z"/>
		</g>
	</g>
	<path class="st1" d="M1340.2,904.8c21.5-10.3,43.4-19.5,66.5-25.7c43.2-11.4,87-14.5,131.4-8.1c25.1,3.6,49.9,9.9,73.7,18.5
		c23,8.5,45.1,18.7,66.4,30.8c24.4,13.7,47.6,29.3,69.3,46.9c11.1,9,21.8,18.4,32.8,27.5c1.9,1.3,3.5,3,4.9,4.9
		c-6.9-1-13.9-2.3-20.8-3.2c-31.9-3.9-63.6-8.2-95.6-11.6c-47.2-5-94.5-6.7-142-5.5c-38.2,0.9-76.1,4-113.8,11
		c-32.3,6-63.8,14.3-93.5,28.5c-4.6,2.2-9.2,4.3-13.8,6.5c2.3-5.2,4.8-10.2,6.7-15.5c4.3-11.8,8.9-23.5,12.3-35.5
		c4.1-14.3,7.2-28.8,10.6-43.2C1337.3,922.6,1338.5,913.6,1340.2,904.8z"/>
	<path class="st2" d="M1145.1,1118.8L1145.1,1118.8L1145.1,1118.8L1145.1,1118.8z"/>
	<linearGradient id="SVGID_2_" gradientUnits="userSpaceOnUse" x1="1095.3" y1="909.1001" x2="1343.0627" y2="909.1001">
		<stop  offset="0" style="stop-color:#AAD400"/>
		<stop  offset="1" style="stop-color:#CCFF00"/>
	</linearGradient>
	<path class="st3" d="M1340.7,813c-4.8-41.8-13.4-82.6-31.8-120.9c-4.6-9.6-8.3-19.7-13.3-29c-6.5-11.7-14.1-22.9-21.1-34.1
		c-9.1-12.9-19.5-24.6-32.7-33.5c-11.4-7.7-22.7-15.6-34.7-21.9c-32.3-17.1-67-21.9-103.1-19.7c-2.6,0.2-5.2,0.6-8.7,1
		c5.6,4.7,10.4,8.5,14.9,12.6c14.1,13.1,24.8,28.9,34.8,45c16.4,26.8,25.1,56.8,32.6,86.9c8.8,35.8,11.3,72.6,11.4,109.3
		c0.2,57.1-3.6,113.9-14.6,170.1c-5.5,28.3-10.1,56.9-15.7,85.2c-3.5,17.7-8.2,35.3-12.2,52.9c-0.4,0.5-0.7,1.1-1.1,1.7
		c-1.3,5.6-2.4,11.2-4,16.8c-10.3,36-20.8,72-31.2,107.9c-1.8,6.2-4.6,12-6.8,18.1c-0.4,1,0,2.3,0,3.4c2.3-1.7,4.7-3.2,6.8-5
		c12.7-10.6,25.5-20.9,38-31.7c10.1-8.8,20.2-17.9,29.8-27.3c12.1-11.9,23.9-24,35.3-36.6c11.1-12.3,21.9-24.9,31.9-38.2
		c10.6-14.3,19.9-29.5,29.7-44.2c-0.3-1.1-0.7-2.2-1-3.3c0.3,1.1,0.7,2.2,1,3.3c5.3-8.6,10.9-17,15.7-25.8
		c5.5-9.9,10.3-20.3,15.4-30.5c2.3-5.2,4.8-10.2,6.7-15.5c4.3-11.8,8.9-23.5,12.3-35.5c4.1-14.3,7.2-28.8,10.6-43.2
		c2-8.8,3.2-17.7,4.9-26.5c0.1-1.4,0-2.9,0.2-4.2C1343.8,871.4,1343.9,842,1340.7,813z"/>
	<path class="st4" d="M874.1,1795h39l39-39l-39-39l39-39l-39-39h48.7l39,39l-39,39l39,39l-39,39h24.4l39-39l-39-39l39-39l-39-39
		h48.7l39,39l-39,39l39,39l-39,39h24.4l39-39l-39-39l39-39l-39-39h48.7l39,39l-39,39l39,39l-39,39h78l-39,39H913L874.1,1795z
		 M932.6,1853.5h194.9v39H932.6V1853.5z M991,1911.9h78l-39,39L991,1911.9z"/>
	<path class="st5" d="M1140.6,1123.3c-12.4,17.6-25,35.1-37,53c-10.7,15.7-21,31.7-30.7,48c-12.2,20.4-24.2,41-35.3,61.9
		c-11.3,21.4-22.7,42.9-31.8,65.3c-12.5,31.1-23.1,63-34.1,94.6c-2.5,7.1-3.8,14.7-5.5,22.1c-4.6,20.8-8,41.7-9.3,62.8h119.7
		c-1.2-4.2-2.5-8.4-3.6-12.7c-3.5-13.9-6.5-27.8-9.4-41.8c-5.8-28.9-9.1-58-8-87.6c1.2-32.5,8.1-63.4,25.9-91.2
		c7.1-11.1,14.5-22,21.7-33c0-1.1-0.4-2.4,0-3.4c2.2-6.1,5-11.9,6.8-18.1c10.4-36,20.9-71.9,31.2-107.9c1.6-5.5,2.7-11.2,4-16.8
		C1143.7,1120.2,1141.8,1121.5,1140.6,1123.3z"/>
	<g>
		<path class="st6" d="M847.8,813.9c0,0-6.5-170-42.8-272c-36.3-102-81.2-269.3-132.6-152.4C621.1,506.3,847.8,813.9,847.8,813.9z"
			/>
		<path class="st6" d="M847.8,813.9c0,0-60.2-247.6-84.8-285.6c-24.6-37.9-76.2-241.4-153.5-110.8S520.1,668,526.3,681.9
			c6.2,13.9,46.8,38.3,90.4,58.5C652.1,756.8,863.9,877.8,847.8,813.9z"/>
		<path class="st6" d="M842.1,830.5c0,0-305.6-210.2-332.8-115c-27.1,95.1,3.1,313.9,48.7,310.2C603.5,1022,791.8,891,842.1,830.5z"
			/>
		<g>
			<path class="st7" d="M854.2,847.9c-26.8,45.3-54.9,78.6-62.8,74.6c-7.9-4.1,7.4-44.1,34.3-89.3c26.8-45.3,55-78.6,62.9-74.6
				C896.4,762.7,881,802.7,854.2,847.9z"/>
			<path class="st7" d="M902.8,766c-4.4,7.4-14.3,10-22.2,6c-7.9-4.1-10.7-13.4-6.4-20.7c4.4-7.4,14.3-10,22.2-6
				C904.3,749.4,907.1,758.6,902.8,766z"/>
			<g>
				<path class="st8" d="M990.1,705.5c0,0-39.5-16.3-93,48.6"/>
				<path class="st7" d="M983.4,702.1c-2,3.5-0.7,7.8,3,9.7c3.7,1.9,8.3,0.7,10.4-2.8c2-3.4,0.7-7.8-3-9.7
					C990.1,697.4,985.4,698.6,983.4,702.1z"/>
			</g>
			<g>
				<path class="st8" d="M957.9,685.9c0,0-43.1-3.6-71.3,74"/>
				<path class="st7" d="M950.3,684.6c-0.7,3.9,2,7.6,6.2,8.3c4.2,0.7,8.1-1.9,8.9-5.8c0.7-3.9-2-7.6-6.2-8.3
					C955.1,678.1,951.1,680.7,950.3,684.6z"/>
			</g>
		</g>
	</g>
</g>
</svg>
